<svg width="490" height="204" viewBox="0 0 490 204" fill="none" xmlns="http://www.w3.org/2000/svg">
<path d="M131.921 93.7754C234.89 80.1515 222.204 115.731 274.811 107.399C327.417 99.0681 322.661 153.063 388.967 136.369C455.273 119.675 449.805 150.886 489.452 124.756V5.27528C489.452 2.51386 487.213 0.275284 484.452 0.275284L0.451904 0.275269C92.9519 19.7754 28.9519 107.399 131.921 93.7754Z" fill="#189EFF"/>
<path d="M126.452 110.275C157.952 47.2755 219.452 88.7754 256.952 80.2754C294.452 71.7754 314.531 21.8001 358.952 31.2757C403.373 40.7514 421.429 112.775 489.452 78.2754V198.275C489.452 201.037 487.213 203.275 484.452 203.275L9.4519 203.275C47.9519 107.275 94.9519 173.275 126.452 110.275Z" fill="#0059FB"/>
<path d="M307.169 65.439C307.969 64.3619 309.581 64.3619 310.381 65.439L412.708 203.276H204.842L307.169 65.439Z" fill="#6CA8C1"/>
<path d="M307.169 65.439C307.968 64.3619 309.581 64.3619 310.38 65.439L351.418 120.718L340.806 131.028C340.066 131.747 338.901 131.785 338.116 131.116L325.764 120.593C324.979 119.925 323.816 119.962 323.076 120.678L304.607 138.544C303.736 139.386 302.323 139.267 301.605 138.292L284.423 114.929C283.881 114.192 282.908 113.916 282.06 114.26L266.131 120.718L307.169 65.439Z" fill="white"/>
<path d="M246.047 181.759C246.047 174.251 252.134 168.165 259.641 168.165H367.503C375.01 168.165 381.096 174.251 381.096 181.759C381.096 189.267 375.01 195.353 367.503 195.353H259.641C252.134 195.353 246.047 189.267 246.047 181.759Z" fill="#2A4E8A"/>
<path d="M296.528 181.759C296.528 185.56 293.446 188.641 289.645 188.641C285.844 188.641 282.763 185.56 282.763 181.759C282.763 177.958 285.844 174.876 289.645 174.876C293.446 174.876 296.528 177.958 296.528 181.759Z" fill="#BF413C"/>
<path fill-rule="evenodd" clip-rule="evenodd" d="M291.754 185.156L286.248 179.65L287.537 178.361L293.043 183.867L291.754 185.156Z" fill="white"/>
<path fill-rule="evenodd" clip-rule="evenodd" d="M287.537 185.156L293.043 179.65L291.754 178.361L286.248 183.867L287.537 185.156Z" fill="white"/>
<path d="M353.307 181.759C353.307 185.56 350.226 188.641 346.425 188.641C342.624 188.641 339.542 185.56 339.542 181.759C339.542 177.958 342.624 174.876 346.425 174.876C350.226 174.876 353.307 177.958 353.307 181.759Z" fill="#BF413C"/>
<path fill-rule="evenodd" clip-rule="evenodd" d="M348.533 185.156L343.027 179.65L344.316 178.361L349.822 183.867L348.533 185.156Z" fill="white"/>
<path fill-rule="evenodd" clip-rule="evenodd" d="M344.316 185.156L349.822 179.65L348.533 178.361L343.027 183.867L344.316 185.156Z" fill="white"/>
<path d="M277.601 181.759C277.601 185.56 274.52 188.641 270.719 188.641C266.918 188.641 263.837 185.56 263.837 181.759C263.837 177.958 266.918 174.876 270.719 174.876C274.52 174.876 277.601 177.958 277.601 181.759Z" fill="#78A752"/>
<path fill-rule="evenodd" clip-rule="evenodd" d="M274.896 179.995L273.607 178.706L269.434 182.879L267.831 181.276L266.542 182.565L269.434 185.457L274.896 179.995Z" fill="white"/>
<path d="M315.454 181.759C315.454 185.56 312.373 188.641 308.572 188.641C304.771 188.641 301.689 185.56 301.689 181.759C301.689 177.958 304.771 174.876 308.572 174.876C312.373 174.876 315.454 177.958 315.454 181.759Z" fill="#78A752"/>
<path fill-rule="evenodd" clip-rule="evenodd" d="M312.749 179.995L311.46 178.706L307.287 182.879L305.684 181.276L304.395 182.565L307.287 185.457L312.749 179.995Z" fill="white"/>
<path d="M334.381 181.759C334.381 185.56 331.299 188.641 327.498 188.641C323.697 188.641 320.616 185.56 320.616 181.759C320.616 177.958 323.697 174.876 327.498 174.876C331.299 174.876 334.381 177.958 334.381 181.759Z" fill="#78A752"/>
<path fill-rule="evenodd" clip-rule="evenodd" d="M331.675 179.995L330.386 178.706L326.213 182.879L324.61 181.276L323.321 182.565L326.213 185.457L331.675 179.995Z" fill="white"/>
<path d="M371.484 181.759C371.484 185.146 368.738 187.891 365.351 187.891C361.965 187.891 359.219 185.146 359.219 181.759C359.219 178.372 361.965 175.626 365.351 175.626C368.738 175.626 371.484 178.372 371.484 181.759Z" stroke="#ABBED6" stroke-width="1.5"/>
<path d="M220.889 120.741C221.689 119.664 223.301 119.664 224.101 120.741L285.373 203.276H159.617L220.889 120.741Z" fill="#A4DEF6"/>
<path d="M220.889 120.741C221.688 119.664 223.301 119.664 224.101 120.741L248.293 153.329H236.967C236.45 153.329 235.953 153.529 235.581 153.887L228.335 160.851C227.505 161.649 226.175 161.583 225.428 160.708L214.257 147.625C213.697 146.969 212.778 146.746 211.979 147.073L196.696 153.329L220.889 120.741Z" fill="white"/>
<path d="M291.05 43.8267L297.749 32.2232C297.946 31.8828 298.381 31.7661 298.722 31.9627L306.118 36.2329C306.458 36.4295 306.575 36.8648 306.379 37.2052L299.679 48.8087C299.375 49.3352 298.594 49.2627 298.392 48.6892L296.929 44.535C296.812 44.2039 296.472 44.0072 296.127 44.0718L291.797 44.8821C291.2 44.9939 290.746 44.3533 291.05 43.8267Z" fill="#EB7426"/>
<path d="M317.704 48.8087L311.005 37.2052C310.808 36.8648 310.925 36.4295 311.265 36.2329L318.662 31.9627C319.002 31.7661 319.437 31.8828 319.634 32.2232L326.333 43.8267C326.637 44.3533 326.183 44.9939 325.586 44.8821L321.257 44.0718C320.912 44.0072 320.571 44.2039 320.454 44.535L318.992 48.6892C318.79 49.2627 318.008 49.3352 317.704 48.8087Z" fill="#EB7426"/>
<g filter="url(#filter0_d_288_2207)">
<path d="M307.174 9.61068C308.1 9.02273 309.283 9.02273 310.21 9.61068V9.61068C310.87 10.0298 311.674 10.1572 312.432 9.96266V9.96266C313.495 9.68981 314.62 10.0553 315.319 10.9008V10.9008C315.818 11.5034 316.543 11.8731 317.324 11.9223V11.9223C318.419 11.9912 319.376 12.6864 319.78 13.7067V13.7067C320.068 14.4339 320.644 15.0098 321.371 15.2977V15.2977C322.391 15.7017 323.087 16.6586 323.155 17.7538V17.7538C323.205 18.5344 323.574 19.26 324.177 19.7586V19.7586C325.022 20.4581 325.388 21.5829 325.115 22.6458V22.6458C324.921 23.4034 325.048 24.2077 325.467 24.8682V24.8682C326.055 25.7947 326.055 26.9775 325.467 27.904V27.904C325.048 28.5644 324.921 29.3687 325.115 30.1264V30.1264C325.388 31.1892 325.022 32.3141 324.177 33.0136V33.0136C323.574 33.5122 323.205 34.2378 323.155 35.0184V35.0184C323.087 36.1136 322.391 37.0704 321.371 37.4744V37.4744C320.644 37.7624 320.068 38.3382 319.78 39.0655V39.0655C319.376 40.0857 318.419 40.7809 317.324 40.8499V40.8499C316.543 40.899 315.818 41.2687 315.319 41.8714V41.8714C314.62 42.7169 313.495 43.0824 312.432 42.8095V42.8095C311.674 42.615 310.87 42.7424 310.21 43.1615V43.1615C309.283 43.7495 308.1 43.7495 307.174 43.1615V43.1615C306.513 42.7424 305.709 42.615 304.951 42.8095V42.8095C303.889 43.0824 302.764 42.7169 302.064 41.8714V41.8714C301.566 41.2687 300.84 40.899 300.059 40.8499V40.8499C298.964 40.7809 298.007 40.0857 297.603 39.0655V39.0655C297.315 38.3382 296.74 37.7624 296.012 37.4744V37.4744C294.992 37.0704 294.297 36.1136 294.228 35.0184V35.0184C294.179 34.2378 293.809 33.5122 293.206 33.0136V33.0136C292.361 32.3141 291.995 31.1892 292.268 30.1264V30.1264C292.463 29.3687 292.335 28.5644 291.916 27.904V27.904C291.328 26.9775 291.328 25.7947 291.916 24.8682V24.8682C292.335 24.2077 292.463 23.4034 292.268 22.6458V22.6458C291.995 21.5829 292.361 20.4581 293.206 19.7586V19.7586C293.809 19.26 294.179 18.5344 294.228 17.7538V17.7538C294.297 16.6586 294.992 15.7017 296.012 15.2977V15.2977C296.74 15.0098 297.315 14.4339 297.603 13.7067V13.7067C298.007 12.6864 298.964 11.9912 300.059 11.9223V11.9223C300.84 11.8731 301.566 11.5034 302.064 10.9008V10.9008C302.764 10.0553 303.889 9.68981 304.951 9.96266V9.96266C305.709 10.1572 306.513 10.0298 307.174 9.61068V9.61068Z" fill="url(#paint0_linear_288_2207)"/>
</g>
<g filter="url(#filter1_d_288_2207)">
<circle cx="308.692" cy="26.439" r="13.168" fill="url(#paint1_linear_288_2207)"/>
</g>
<path d="M308.775 58.6509L308.775 49.9009" stroke="white" stroke-width="2" stroke-linecap="round"/>
<path d="M157.446 176.759H172.196L183.196 187.759" stroke="white" stroke-width="2" stroke-linecap="round"/>
<path d="M103.429 180.965C102.367 180.965 101.558 180.656 101.004 180.038C100.454 179.416 100.179 178.525 100.179 177.366C100.179 176.185 100.467 175.277 101.042 174.643C101.622 174.008 102.458 173.69 103.549 173.69C104.29 173.69 104.956 173.828 105.549 174.103L105.098 175.303C104.468 175.057 103.947 174.935 103.537 174.935C102.322 174.935 101.715 175.741 101.715 177.353C101.715 178.14 101.865 178.733 102.166 179.13C102.47 179.524 102.915 179.721 103.499 179.721C104.163 179.721 104.791 179.556 105.384 179.226V180.527C105.117 180.683 104.832 180.796 104.527 180.863C104.226 180.931 103.86 180.965 103.429 180.965ZM113.261 177.315C113.261 178.462 112.967 179.357 112.379 180C111.791 180.643 110.972 180.965 109.922 180.965C109.266 180.965 108.687 180.817 108.183 180.521C107.68 180.224 107.292 179.799 107.022 179.245C106.751 178.69 106.615 178.047 106.615 177.315C106.615 176.177 106.907 175.288 107.491 174.649C108.075 174.01 108.898 173.69 109.961 173.69C110.976 173.69 111.78 174.018 112.373 174.674C112.965 175.326 113.261 176.206 113.261 177.315ZM108.151 177.315C108.151 178.936 108.75 179.746 109.948 179.746C111.133 179.746 111.725 178.936 111.725 177.315C111.725 175.711 111.128 174.909 109.935 174.909C109.309 174.909 108.854 175.117 108.57 175.531C108.291 175.946 108.151 176.541 108.151 177.315ZM121.158 180.838H119.66V176.521C119.66 175.98 119.55 175.576 119.33 175.309C119.114 175.042 118.769 174.909 118.295 174.909C117.664 174.909 117.203 175.095 116.911 175.468C116.619 175.84 116.473 176.464 116.473 177.34V180.838H114.982V173.817H116.149L116.359 174.738H116.435C116.647 174.403 116.947 174.145 117.336 173.963C117.726 173.781 118.157 173.69 118.631 173.69C120.316 173.69 121.158 174.547 121.158 176.261V180.838ZM125.849 179.759C126.213 179.759 126.577 179.702 126.94 179.587V180.711C126.775 180.783 126.562 180.842 126.299 180.889C126.041 180.939 125.773 180.965 125.493 180.965C124.08 180.965 123.373 180.22 123.373 178.73V174.947H122.415V174.287L123.443 173.741L123.951 172.256H124.871V173.817H126.871V174.947H124.871V178.705C124.871 179.065 124.96 179.331 125.138 179.505C125.32 179.674 125.557 179.759 125.849 179.759ZM131.416 180.965C130.324 180.965 129.469 180.647 128.851 180.013C128.238 179.374 127.931 178.496 127.931 177.378C127.931 176.232 128.216 175.33 128.788 174.674C129.359 174.018 130.144 173.69 131.143 173.69C132.069 173.69 132.801 173.972 133.339 174.535C133.876 175.097 134.145 175.872 134.145 176.858V177.664H129.467C129.488 178.345 129.672 178.87 130.019 179.238C130.366 179.602 130.855 179.784 131.485 179.784C131.9 179.784 132.285 179.746 132.641 179.67C133 179.59 133.385 179.458 133.796 179.276V180.489C133.432 180.662 133.064 180.785 132.691 180.857C132.319 180.929 131.894 180.965 131.416 180.965ZM131.143 174.82C130.669 174.82 130.288 174.971 130 175.271C129.717 175.571 129.547 176.009 129.492 176.585H132.679C132.67 176.005 132.531 175.567 132.26 175.271C131.989 174.971 131.617 174.82 131.143 174.82ZM142.016 180.838H140.518V176.521C140.518 175.98 140.408 175.576 140.188 175.309C139.972 175.042 139.627 174.909 139.153 174.909C138.523 174.909 138.062 175.095 137.77 175.468C137.478 175.84 137.332 176.464 137.332 177.34V180.838H135.84V173.817H137.008L137.217 174.738H137.294C137.505 174.403 137.806 174.145 138.195 173.963C138.584 173.781 139.016 173.69 139.49 173.69C141.174 173.69 142.016 174.547 142.016 176.261V180.838ZM146.46 180.965C145.584 180.965 144.9 180.647 144.409 180.013C143.918 179.378 143.673 178.487 143.673 177.34C143.673 176.189 143.92 175.294 144.416 174.655C144.915 174.012 145.605 173.69 146.485 173.69C147.407 173.69 148.11 174.031 148.592 174.712H148.669C148.597 174.209 148.561 173.811 148.561 173.519V170.961H150.059V180.838H148.891L148.63 179.917H148.561C148.082 180.616 147.382 180.965 146.46 180.965ZM146.859 179.759C147.473 179.759 147.919 179.587 148.199 179.245C148.478 178.898 148.622 178.337 148.63 177.562V177.353C148.63 176.469 148.487 175.84 148.199 175.468C147.911 175.095 147.46 174.909 146.847 174.909C146.322 174.909 145.918 175.123 145.634 175.55C145.351 175.973 145.209 176.579 145.209 177.366C145.209 178.144 145.347 178.739 145.622 179.149C145.897 179.556 146.309 179.759 146.859 179.759Z" fill="white"/>
<circle cx="88.0576" cy="175.821" r="9.47369" stroke="white" stroke-width="0.5"/>
<path d="M88.0579 183.583C85.9427 183.583 84.0251 182.736 82.6252 181.364" stroke="#ABCC93" stroke-width="1.5" stroke-linecap="round"/>
<path d="M86.9503 178.446H85.8941V175.554L85.9044 175.079L85.9214 174.56C85.746 174.735 85.6241 174.85 85.5557 174.905L84.9815 175.366L84.4722 174.73L86.0821 173.449H86.9503V178.446ZM91.9439 177.41H91.3423V178.446H90.3101V177.41H88.1773V176.675L90.3682 173.449H91.3423V176.59H91.9439V177.41ZM90.3101 176.59V175.742C90.3101 175.601 90.3158 175.396 90.3272 175.127C90.3386 174.858 90.3477 174.702 90.3546 174.659H90.3272C90.2429 174.846 90.1415 175.028 90.023 175.206L89.107 176.59H90.3101Z" fill="white"/>
<path d="M238.381 102.257H253.131L264.131 113.257" stroke="white" stroke-width="2" stroke-linecap="round"/>
<path d="M207.393 99.876H205.68V105.767H204.182V99.876H203.026V99.1777L204.182 98.7207V98.2637C204.182 97.4342 204.376 96.8206 204.766 96.4229C205.155 96.0208 205.749 95.8198 206.549 95.8198C207.074 95.8198 207.59 95.9066 208.098 96.0801L207.705 97.21C207.336 97.0915 206.985 97.0322 206.651 97.0322C206.312 97.0322 206.065 97.138 205.908 97.3496C205.756 97.557 205.68 97.8701 205.68 98.2891V98.7461H207.393V99.876ZM210.079 105.767H208.587V95.8896H210.079V105.767ZM217.175 105.767L216.966 104.846H216.89C216.682 105.172 216.386 105.428 216.001 105.614C215.62 105.8 215.184 105.894 214.693 105.894C213.843 105.894 213.208 105.682 212.789 105.259C212.37 104.836 212.161 104.194 212.161 103.335V98.7461H213.665V103.075C213.665 103.613 213.775 104.017 213.995 104.288C214.215 104.554 214.56 104.688 215.03 104.688C215.656 104.688 216.115 104.501 216.407 104.129C216.703 103.752 216.852 103.124 216.852 102.244V98.7461H218.35V105.767H217.175ZM225.192 103.767C225.192 104.453 224.943 104.979 224.443 105.348C223.944 105.712 223.229 105.894 222.298 105.894C221.363 105.894 220.611 105.752 220.044 105.468V104.18C220.87 104.561 221.638 104.751 222.349 104.751C223.267 104.751 223.726 104.474 223.726 103.919C223.726 103.742 223.675 103.594 223.574 103.475C223.472 103.357 223.305 103.234 223.072 103.107C222.839 102.98 222.516 102.836 222.101 102.675C221.293 102.362 220.745 102.049 220.457 101.736C220.173 101.423 220.032 101.016 220.032 100.517C220.032 99.9162 220.273 99.4507 220.755 99.1206C221.242 98.7863 221.902 98.6191 222.736 98.6191C223.561 98.6191 224.342 98.7863 225.078 99.1206L224.596 100.244C223.838 99.931 223.201 99.7744 222.685 99.7744C221.898 99.7744 221.504 99.9987 221.504 100.447C221.504 100.667 221.606 100.854 221.809 101.006C222.016 101.158 222.465 101.368 223.155 101.634C223.734 101.859 224.156 102.064 224.418 102.25C224.68 102.436 224.875 102.652 225.002 102.897C225.129 103.139 225.192 103.429 225.192 103.767ZM232.987 105.767H231.489V101.45C231.489 100.909 231.379 100.504 231.159 100.238C230.943 99.9712 230.598 99.8379 230.124 99.8379C229.498 99.8379 229.037 100.026 228.741 100.403C228.449 100.775 228.303 101.402 228.303 102.282V105.767H226.811V95.8896H228.303V98.397C228.303 98.799 228.277 99.2285 228.227 99.6855H228.322C228.525 99.347 228.806 99.0846 229.166 98.8984C229.53 98.7122 229.953 98.6191 230.435 98.6191C232.137 98.6191 232.987 99.4761 232.987 101.19V105.767Z" fill="white"/>
<circle cx="189.33" cy="100.75" r="9.47369" stroke="white" stroke-width="0.5"/>
<path d="M186.107 103.375L187.984 99.2729H185.519V98.3843H189.105V99.0474L187.215 103.375H186.107ZM191.429 100.182C191.912 100.182 192.296 100.318 192.581 100.589C192.868 100.86 193.012 101.231 193.012 101.703C193.012 102.261 192.84 102.691 192.496 102.992C192.151 103.292 191.659 103.443 191.019 103.443C190.463 103.443 190.014 103.353 189.672 103.173V102.26C189.852 102.356 190.062 102.435 190.301 102.496C190.54 102.555 190.767 102.585 190.981 102.585C191.626 102.585 191.949 102.321 191.949 101.792C191.949 101.288 191.615 101.037 190.947 101.037C190.826 101.037 190.693 101.049 190.547 101.074C190.401 101.097 190.283 101.122 190.192 101.149L189.771 100.924L189.959 98.3774H192.67V99.2729H190.886L190.793 100.254L190.913 100.23C191.052 100.198 191.224 100.182 191.429 100.182Z" fill="white"/>
<path d="M189.33 108.511C185.044 108.511 181.569 105.036 181.569 100.749C181.569 96.4628 185.044 92.9878 189.33 92.9878C193.617 92.9878 197.092 96.4628 197.092 100.749" stroke="#ABCC93" stroke-width="1.5" stroke-linecap="round"/>
<path d="M386.846 133.874H372.096L361.096 144.874" stroke="white" stroke-width="2" stroke-linecap="round"/>
<path d="M420.315 131.292V132.11L419.115 132.333C419.225 132.481 419.316 132.663 419.388 132.878C419.46 133.094 419.496 133.323 419.496 133.564C419.496 134.288 419.246 134.857 418.747 135.271C418.248 135.686 417.56 135.894 416.684 135.894C416.46 135.894 416.257 135.877 416.075 135.843C415.753 136.042 415.592 136.274 415.592 136.541C415.592 136.702 415.666 136.822 415.814 136.903C415.967 136.983 416.244 137.023 416.646 137.023H417.871C418.646 137.023 419.234 137.188 419.636 137.519C420.038 137.849 420.239 138.325 420.239 138.947C420.239 139.742 419.911 140.356 419.255 140.788C418.599 141.219 417.651 141.435 416.411 141.435C415.455 141.435 414.725 141.266 414.221 140.927C413.718 140.589 413.466 140.106 413.466 139.48C413.466 139.048 413.601 138.684 413.872 138.388C414.147 138.096 414.53 137.893 415.021 137.779C414.822 137.694 414.657 137.559 414.526 137.373C414.399 137.182 414.335 136.983 414.335 136.776C414.335 136.514 414.41 136.291 414.558 136.109C414.706 135.927 414.926 135.748 415.218 135.57C414.854 135.413 414.558 135.159 414.329 134.808C414.105 134.453 413.993 134.038 413.993 133.564C413.993 132.802 414.232 132.212 414.71 131.793C415.192 131.374 415.878 131.165 416.767 131.165C416.965 131.165 417.173 131.179 417.389 131.209C417.609 131.234 417.774 131.262 417.884 131.292H420.315ZM414.799 139.404C414.799 139.725 414.943 139.973 415.23 140.146C415.522 140.32 415.931 140.407 416.456 140.407C417.268 140.407 417.873 140.29 418.271 140.058C418.669 139.825 418.868 139.516 418.868 139.131C418.868 138.826 418.758 138.608 418.538 138.477C418.322 138.35 417.918 138.287 417.325 138.287H416.195C415.768 138.287 415.427 138.386 415.173 138.585C414.924 138.788 414.799 139.061 414.799 139.404ZM415.44 133.564C415.44 134.004 415.552 134.343 415.776 134.58C416.005 134.817 416.331 134.935 416.754 134.935C417.617 134.935 418.049 134.474 418.049 133.551C418.049 133.094 417.941 132.743 417.725 132.498C417.514 132.248 417.19 132.123 416.754 132.123C416.322 132.123 415.994 132.246 415.77 132.491C415.55 132.737 415.44 133.094 415.44 133.564ZM423.114 138.312H421.623V131.292H423.114V138.312ZM421.534 129.432C421.534 129.165 421.606 128.96 421.75 128.816C421.898 128.672 422.107 128.6 422.378 128.6C422.64 128.6 422.843 128.672 422.987 128.816C423.135 128.96 423.209 129.165 423.209 129.432C423.209 129.686 423.135 129.887 422.987 130.035C422.843 130.179 422.64 130.25 422.378 130.25C422.107 130.25 421.898 130.179 421.75 130.035C421.606 129.887 421.534 129.686 421.534 129.432ZM431.169 138.312H429.671V133.983C429.671 133.445 429.57 133.046 429.367 132.783C429.164 132.517 428.846 132.383 428.415 132.383C427.839 132.383 427.416 132.572 427.145 132.948C426.878 133.321 426.745 133.943 426.745 134.814V138.312H425.253V131.292H426.421L426.631 132.212H426.707C426.902 131.878 427.183 131.619 427.551 131.438C427.924 131.256 428.332 131.165 428.776 131.165C429.855 131.165 430.571 131.533 430.922 132.269H431.023C431.231 131.922 431.523 131.651 431.899 131.457C432.276 131.262 432.708 131.165 433.194 131.165C434.032 131.165 434.642 131.376 435.022 131.799C435.408 132.222 435.6 132.868 435.6 133.735V138.312H434.108V133.983C434.108 133.445 434.005 133.046 433.797 132.783C433.594 132.517 433.277 132.383 432.845 132.383C432.265 132.383 431.84 132.565 431.569 132.929C431.303 133.289 431.169 133.843 431.169 134.592V138.312ZM443.598 138.312H442.1V133.983C442.1 133.445 441.999 133.046 441.795 132.783C441.592 132.517 441.275 132.383 440.843 132.383C440.268 132.383 439.845 132.572 439.574 132.948C439.307 133.321 439.174 133.943 439.174 134.814V138.312H437.682V131.292H438.85L439.06 132.212H439.136C439.33 131.878 439.612 131.619 439.98 131.438C440.352 131.256 440.761 131.165 441.205 131.165C442.284 131.165 442.999 131.533 443.351 132.269H443.452C443.66 131.922 443.951 131.651 444.328 131.457C444.705 131.262 445.136 131.165 445.623 131.165C446.461 131.165 447.07 131.376 447.451 131.799C447.836 132.222 448.029 132.868 448.029 133.735V138.312H446.537V133.983C446.537 133.445 446.433 133.046 446.226 132.783C446.023 132.517 445.706 132.383 445.274 132.383C444.694 132.383 444.269 132.565 443.998 132.929C443.731 133.289 443.598 133.843 443.598 134.592V138.312ZM451.603 138.312H450.111V131.292H451.603V138.312ZM450.022 129.432C450.022 129.165 450.094 128.96 450.238 128.816C450.386 128.672 450.595 128.6 450.866 128.6C451.129 128.6 451.332 128.672 451.476 128.816C451.624 128.96 451.698 129.165 451.698 129.432C451.698 129.686 451.624 129.887 451.476 130.035C451.332 130.179 451.129 130.25 450.866 130.25C450.595 130.25 450.386 130.179 450.238 130.035C450.094 129.887 450.022 129.686 450.022 129.432ZM456.573 138.439C455.511 138.439 454.702 138.13 454.148 137.512C453.598 136.89 453.323 135.999 453.323 134.84C453.323 133.659 453.611 132.751 454.186 132.117C454.766 131.482 455.602 131.165 456.693 131.165C457.434 131.165 458.1 131.302 458.693 131.577L458.242 132.777C457.612 132.531 457.091 132.409 456.681 132.409C455.466 132.409 454.859 133.215 454.859 134.827C454.859 135.614 455.009 136.207 455.31 136.604C455.614 136.998 456.059 137.195 456.643 137.195C457.307 137.195 457.935 137.03 458.528 136.7V138.001C458.261 138.158 457.976 138.27 457.671 138.337C457.37 138.405 457.004 138.439 456.573 138.439ZM461.619 134.605L462.463 133.551L464.583 131.292H466.304L463.479 134.307L466.481 138.312H464.729L462.476 135.233L461.657 135.906V138.312H460.178V128.435H461.657V133.253L461.581 134.605H461.619Z" fill="white"/>
<circle cx="401.846" cy="133.874" r="9.47369" stroke="white" stroke-width="0.5"/>
<path d="M401.846 141.635C397.56 141.635 394.085 138.16 394.085 133.874C394.085 129.587 397.56 126.112 401.846 126.112" stroke="#ABCC93" stroke-width="1.5" stroke-linecap="round"/>
<path d="M399.946 133.307C400.429 133.307 400.813 133.442 401.098 133.713C401.385 133.985 401.528 134.356 401.528 134.828C401.528 135.386 401.356 135.815 401.012 136.116C400.668 136.417 400.176 136.567 399.536 136.567C398.98 136.567 398.531 136.477 398.189 136.297V135.385C398.369 135.48 398.579 135.559 398.818 135.621C399.057 135.68 399.284 135.709 399.498 135.709C400.143 135.709 400.465 135.445 400.465 134.917C400.465 134.413 400.132 134.161 399.464 134.161C399.343 134.161 399.21 134.174 399.064 134.199C398.918 134.222 398.8 134.247 398.709 134.274L398.288 134.048L398.476 131.502H401.187V132.397H399.402L399.31 133.378L399.43 133.354C399.569 133.323 399.741 133.307 399.946 133.307ZM405.592 134C405.592 134.873 405.449 135.519 405.162 135.938C404.877 136.358 404.437 136.567 403.842 136.567C403.266 136.567 402.831 136.351 402.537 135.918C402.245 135.485 402.099 134.846 402.099 134C402.099 133.119 402.242 132.469 402.526 132.052C402.811 131.633 403.25 131.423 403.842 131.423C404.419 131.423 404.854 131.642 405.148 132.08C405.444 132.517 405.592 133.157 405.592 134ZM403.148 134C403.148 134.613 403.201 135.053 403.306 135.32C403.413 135.584 403.592 135.716 403.842 135.716C404.088 135.716 404.266 135.582 404.376 135.313C404.485 135.044 404.54 134.607 404.54 134C404.54 133.388 404.484 132.948 404.372 132.681C404.263 132.412 404.086 132.278 403.842 132.278C403.594 132.278 403.416 132.412 403.309 132.681C403.202 132.948 403.148 133.388 403.148 134Z" fill="white"/>
<path d="M435.513 170.689C434.713 169.612 433.101 169.612 432.301 170.689L408.11 203.276H459.705L435.513 170.689Z" fill="#6CA8C1"/>
<path d="M432.301 170.689C433.101 169.612 434.713 169.612 435.513 170.689L451.011 191.565H443.773C443.256 191.565 442.76 191.765 442.387 192.123L437.923 196.413C437.247 197.063 436.209 197.155 435.428 196.635L428.327 191.901C427.999 191.682 427.613 191.565 427.218 191.565H416.804L432.301 170.689Z" fill="white"/>
<g filter="url(#filter2_d_288_2207)">
<path d="M54.5511 89.012C54.5511 85.0456 57.7666 81.8301 61.7331 81.8301H154.186C158.153 81.8301 161.368 85.0456 161.368 89.012V144.545C161.368 148.511 158.153 151.727 154.186 151.727H61.7331C57.7666 151.727 54.5511 148.511 54.5511 144.545V89.012Z" fill="white"/>
<path fill-rule="evenodd" clip-rule="evenodd" d="M68.4435 91.4208C67.1172 91.4208 66.042 92.4959 66.042 93.8222C66.042 95.1485 67.1172 96.2237 68.4435 96.2237C69.7698 96.2237 70.845 95.1485 70.845 93.8222C70.845 92.4959 69.7698 91.4208 68.4435 91.4208ZM64.6057 93.8222C64.6057 91.7026 66.3239 89.9844 68.4435 89.9844C70.5631 89.9844 72.2814 91.7026 72.2814 93.8222C72.2814 95.9418 70.5631 97.6601 68.4435 97.6601C66.3239 97.6601 64.6057 95.9418 64.6057 93.8222Z" fill="#78A752"/>
<path fill-rule="evenodd" clip-rule="evenodd" d="M68.4435 106.996C67.1172 106.996 66.042 108.072 66.042 109.398C66.042 110.724 67.1172 111.799 68.4435 111.799C69.7698 111.799 70.845 110.724 70.845 109.398C70.845 108.072 69.7698 106.996 68.4435 106.996ZM64.6057 109.398C64.6057 107.278 66.3239 105.56 68.4435 105.56C70.5631 105.56 72.2814 107.278 72.2814 109.398C72.2814 111.518 70.5631 113.236 68.4435 113.236C66.3239 113.236 64.6057 111.518 64.6057 109.398Z" fill="#78A752"/>
<path d="M78.6107 93.8221C78.6107 92.6321 79.5754 91.6675 80.7653 91.6675H126.947C128.137 91.6675 129.102 92.6321 129.102 93.8221C129.102 95.012 128.137 95.9767 126.947 95.9767H80.7653C79.5754 95.9767 78.6107 95.012 78.6107 93.8221Z" fill="#2A4E8A"/>
<path fill-rule="evenodd" clip-rule="evenodd" d="M68.4435 122.573C67.1172 122.573 66.042 123.648 66.042 124.974C66.042 126.3 67.1172 127.376 68.4435 127.376C69.7698 127.376 70.845 126.3 70.845 124.974C70.845 123.648 69.7698 122.573 68.4435 122.573ZM64.6057 124.974C64.6057 122.854 66.3239 121.136 68.4435 121.136C70.5631 121.136 72.2814 122.854 72.2814 124.974C72.2814 127.094 70.5631 128.812 68.4435 128.812C66.3239 128.812 64.6057 127.094 64.6057 124.974Z" fill="#78A752"/>
<path d="M78.6107 124.974C78.6107 123.784 79.5753 122.82 80.7652 122.82H137.503C138.693 122.82 139.657 123.784 139.657 124.974V124.974C139.657 126.164 138.693 127.129 137.503 127.129H80.7652C79.5753 127.129 78.6107 126.164 78.6107 124.974V124.974Z" fill="#2A4E8A"/>
<path fill-rule="evenodd" clip-rule="evenodd" d="M68.4435 138.392C67.1172 138.392 66.042 139.467 66.042 140.793C66.042 142.12 67.1172 143.195 68.4435 143.195C69.7698 143.195 70.845 142.12 70.845 140.793C70.845 139.467 69.7698 138.392 68.4435 138.392ZM64.6057 140.793C64.6057 138.674 66.3239 136.956 68.4435 136.956C70.5631 136.956 72.2814 138.674 72.2814 140.793C72.2814 142.913 70.5631 144.631 68.4435 144.631C66.3239 144.631 64.6057 142.913 64.6057 140.793Z" fill="#78A752"/>
<path fill-rule="evenodd" clip-rule="evenodd" d="M70.0695 140.063L67.8462 142.286L66.8179 141.258L67.3258 140.75L67.8462 141.27L69.5617 139.555L70.0695 140.063Z" fill="#78A752"/>
<path d="M78.6107 140.793C78.6107 139.603 79.5753 138.639 80.7652 138.639H112.73C113.92 138.639 114.885 139.603 114.885 140.793C114.885 141.983 113.92 142.948 112.73 142.948H80.7652C79.5753 142.948 78.6107 141.983 78.6107 140.793Z" fill="#78A752"/>
<path d="M78.6107 109.398C78.6107 108.208 79.5754 107.244 80.7653 107.244H118.041C119.231 107.244 120.195 108.208 120.195 109.398C120.195 110.588 119.231 111.553 118.041 111.553H80.7653C79.5754 111.553 78.6107 110.588 78.6107 109.398Z" fill="#2A4E8A"/>
<path d="M172.868 116.778C172.868 123.129 167.719 128.278 161.368 128.278C155.018 128.278 149.868 123.129 149.868 116.778C149.868 110.427 155.01 105.278 161.361 105.278C167.712 105.278 172.861 110.427 172.861 116.778H172.868Z" fill="#F0B414"/>
<path d="M171.601 116.778C171.601 122.43 167.02 127.018 161.361 127.018C155.702 127.018 151.121 122.437 151.121 116.778C151.121 111.119 155.709 106.545 161.361 106.545C167.013 106.545 171.601 111.126 171.601 116.785V116.778Z" fill="#FFEB0A"/>
<path d="M152.323 116.778C152.323 112.656 154.479 109.073 157.661 107.23C153.838 108.716 151.128 112.43 151.128 116.778C151.128 121.126 153.838 124.84 157.661 126.326C154.479 124.484 152.323 120.9 152.323 116.778V116.778Z" fill="white"/>
<path d="M159.497 116.268C159.504 116.188 159.511 116.108 159.511 116.028C159.511 114.804 158.521 113.814 157.297 113.814C156.074 113.814 155.083 114.804 155.083 116.028C155.083 116.108 155.083 116.188 155.098 116.268" stroke="#CA9300" stroke-width="1.45" stroke-miterlimit="10" stroke-linecap="round"/>
<path d="M167.879 116.268C167.887 116.188 167.894 116.108 167.894 116.028C167.894 114.804 166.904 113.814 165.68 113.814C164.456 113.814 163.466 114.804 163.466 116.028C163.466 116.108 163.466 116.188 163.481 116.268" stroke="#CA9300" stroke-width="1.45" stroke-miterlimit="10" stroke-linecap="round"/>
<path d="M157.319 119.131C157.918 120.803 159.428 121.833 161.31 121.833C163.192 121.833 164.818 120.803 165.301 119.131" stroke="#CA9300" stroke-width="1.5" stroke-miterlimit="10" stroke-linecap="round"/>
</g>
<path d="M353.566 31.8035C353.566 27.6563 356.928 24.2944 361.075 24.2944H460.934C465.081 24.2944 468.443 27.6564 468.443 31.8035V89.8653C468.443 94.0125 465.081 97.3744 460.934 97.3744H361.075C356.928 97.3744 353.566 94.0125 353.566 89.8653V31.8035Z" fill="white"/>
<path fill-rule="evenodd" clip-rule="evenodd" d="M368.091 34.3221C366.704 34.3221 365.58 35.4463 365.58 36.833C365.58 38.2197 366.704 39.3438 368.091 39.3438C369.477 39.3438 370.602 38.2197 370.602 36.833C370.602 35.4463 369.477 34.3221 368.091 34.3221ZM364.078 36.833C364.078 34.6168 365.875 32.8203 368.091 32.8203C370.307 32.8203 372.103 34.6168 372.103 36.833C372.103 39.0491 370.307 40.8456 368.091 40.8456C365.875 40.8456 364.078 39.0491 364.078 36.833Z" fill="#78A752"/>
<path fill-rule="evenodd" clip-rule="evenodd" d="M368.091 83.1776C366.704 83.1776 365.58 84.3017 365.58 85.6884C365.58 87.0751 366.704 88.1993 368.091 88.1993C369.477 88.1993 370.602 87.0751 370.602 85.6884C370.602 84.3017 369.477 83.1776 368.091 83.1776ZM364.078 85.6884C364.078 83.4723 365.875 81.6758 368.091 81.6758C370.307 81.6758 372.103 83.4723 372.103 85.6884C372.103 87.9046 370.307 89.7011 368.091 89.7011C365.875 89.7011 364.078 87.9046 364.078 85.6884Z" fill="#78A752"/>
<path fill-rule="evenodd" clip-rule="evenodd" d="M368.091 50.6073C366.704 50.6073 365.58 51.7314 365.58 53.1181C365.58 54.5048 366.704 55.629 368.091 55.629C369.477 55.629 370.602 54.5048 370.602 53.1181C370.602 51.7314 369.477 50.6073 368.091 50.6073ZM364.078 53.1181C364.078 50.902 365.875 49.1055 368.091 49.1055C370.307 49.1055 372.103 50.902 372.103 53.1181C372.103 55.3342 370.307 57.1308 368.091 57.1308C365.875 57.1308 364.078 55.3342 364.078 53.1181Z" fill="#BA342F"/>
<path fill-rule="evenodd" clip-rule="evenodd" d="M368.993 54.5509L366.658 52.216L367.189 51.6851L369.524 54.0199L368.993 54.5509Z" fill="#BA342F"/>
<path fill-rule="evenodd" clip-rule="evenodd" d="M367.189 54.5509L369.524 52.216L368.993 51.6851L366.658 54.0199L367.189 54.5509Z" fill="#BA342F"/>
<path fill-rule="evenodd" clip-rule="evenodd" d="M368.091 66.8924C366.704 66.8924 365.58 68.0166 365.58 69.4033C365.58 70.79 366.704 71.9141 368.091 71.9141C369.477 71.9141 370.602 70.79 370.602 69.4033C370.602 68.0166 369.477 66.8924 368.091 66.8924ZM364.078 69.4033C364.078 67.1871 365.875 65.3906 368.091 65.3906C370.307 65.3906 372.103 67.1871 372.103 69.4033C372.103 71.6194 370.307 73.4159 368.091 73.4159C365.875 73.4159 364.078 71.6194 364.078 69.4033Z" fill="#78A752"/>
<path fill-rule="evenodd" clip-rule="evenodd" d="M369.791 68.6389L367.466 70.9635L366.391 69.8884L366.922 69.3575L367.466 69.9015L369.26 68.1079L369.791 68.6389Z" fill="#78A752"/>
<path d="M378.721 36.8328C378.721 35.5887 379.73 34.5801 380.974 34.5801H448.18C449.424 34.5801 450.433 35.5887 450.433 36.8328V36.8328C450.433 38.0769 449.424 39.0855 448.18 39.0855H380.974C379.73 39.0855 378.721 38.0769 378.721 36.8328V36.8328Z" fill="#2A4E8A"/>
<path d="M378.721 85.6887C378.721 84.4446 379.73 83.436 380.974 83.436H440.295C441.539 83.436 442.548 84.4446 442.548 85.6887V85.6887C442.548 86.9329 441.539 87.9415 440.295 87.9415H380.974C379.73 87.9415 378.721 86.9329 378.721 85.6887V85.6887Z" fill="#2A4E8A"/>
<path d="M378.721 69.4036C378.721 68.1595 379.73 67.1509 380.974 67.1509H450.696C451.94 67.1509 452.949 68.1595 452.949 69.4036C452.949 70.6477 451.94 71.6563 450.696 71.6563H380.974C379.73 71.6563 378.721 70.6477 378.721 69.4036Z" fill="#78A752"/>
<path d="M378.721 53.1179C378.721 51.8738 379.73 50.8652 380.974 50.8652H429.407C430.651 50.8652 431.66 51.8738 431.66 53.1179V53.1179C431.66 54.3621 430.651 55.3707 429.407 55.3707H380.974C379.73 55.3707 378.721 54.3621 378.721 53.1179V53.1179Z" fill="#BF413C"/>
<path d="M480.042 60.8345C480.042 67.1853 474.892 72.3345 468.542 72.3345C462.191 72.3345 457.042 67.1853 457.042 60.8345C457.042 54.4836 462.183 49.3345 468.534 49.3345C474.885 49.3345 480.034 54.4836 480.034 60.8345H480.042Z" fill="#C27500"/>
<path d="M478.774 60.7244C478.774 66.3761 474.193 70.9644 468.534 70.9644C462.875 70.9644 458.294 66.3834 458.294 60.7244C458.294 55.0654 462.875 50.4844 468.534 50.4844C474.193 50.4844 478.774 55.0654 478.774 60.7244V60.7244Z" fill="#FF9900"/>
<path d="M459.496 60.8343C459.496 56.712 461.652 53.1288 464.835 51.2861C461.011 52.7719 458.302 56.4863 458.302 60.8343C458.302 65.1823 461.011 68.8966 464.835 70.3824C461.652 68.5398 459.496 64.9565 459.496 60.8343Z" fill="white"/>
<path d="M464.478 64.0972H472.409" stroke="#C86103" stroke-width="1.5" stroke-miterlimit="10" stroke-linecap="round"/>
<path d="M464.288 61.3587C465.012 61.3587 465.599 60.7718 465.599 60.0478C465.599 59.3238 465.012 58.7368 464.288 58.7368C463.564 58.7368 462.977 59.3238 462.977 60.0478C462.977 60.7718 463.564 61.3587 464.288 61.3587Z" fill="#C86103"/>
<path d="M472.678 61.3587C473.402 61.3587 473.989 60.7718 473.989 60.0478C473.989 59.3238 473.402 58.7368 472.678 58.7368C471.954 58.7368 471.367 59.3238 471.367 60.0478C471.367 60.7718 471.954 61.3587 472.678 61.3587Z" fill="#C86103"/>
<path d="M161.502 20.4457C161.502 17.4918 163.897 15.0972 166.85 15.0972H238.255C241.209 15.0972 243.604 17.4918 243.604 20.4457V61.8021C243.604 64.756 241.209 67.1506 238.255 67.1506H166.85C163.897 67.1506 161.502 64.756 161.502 61.8021V20.4457Z" fill="white"/>
<path fill-rule="evenodd" clip-rule="evenodd" d="M171.848 56.9559C170.86 56.9559 170.059 57.7566 170.059 58.7444C170.059 59.7321 170.86 60.5328 171.848 60.5328C172.836 60.5328 173.636 59.7321 173.636 58.7444C173.636 57.7566 172.836 56.9559 171.848 56.9559ZM168.99 58.7444C168.99 57.1659 170.269 55.8862 171.848 55.8862C173.426 55.8862 174.706 57.1659 174.706 58.7444C174.706 60.3229 173.426 61.6025 171.848 61.6025C170.269 61.6025 168.99 60.3229 168.99 58.7444Z" fill="#78A752"/>
<path d="M179.419 58.7442C179.419 57.858 180.138 57.1396 181.024 57.1396H215.417C216.303 57.1396 217.021 57.858 217.021 58.7442C217.021 59.6304 216.303 60.3488 215.417 60.3488H181.024C180.138 60.3488 179.419 59.6304 179.419 58.7442Z" fill="#2A4E8A"/>
<path fill-rule="evenodd" clip-rule="evenodd" d="M171.848 33.8392C170.86 33.8392 170.059 34.6399 170.059 35.6277C170.059 36.6154 170.86 37.4161 171.848 37.4161C172.835 37.4161 173.636 36.6154 173.636 35.6277C173.636 34.6399 172.835 33.8392 171.848 33.8392ZM168.99 35.6277C168.99 34.0492 170.269 32.7695 171.848 32.7695C173.426 32.7695 174.706 34.0492 174.706 35.6277C174.706 37.2062 173.426 38.4858 171.848 38.4858C170.269 38.4858 168.99 37.2062 168.99 35.6277Z" fill="#BA342F"/>
<path fill-rule="evenodd" clip-rule="evenodd" d="M172.49 36.6482L170.827 34.9851L171.205 34.6069L172.869 36.27L172.49 36.6482Z" fill="#BA342F"/>
<path fill-rule="evenodd" clip-rule="evenodd" d="M171.205 36.6482L172.868 34.9851L172.49 34.6069L170.827 36.27L171.205 36.6482Z" fill="#BA342F"/>
<path d="M179.419 35.628C179.419 34.7418 180.138 34.0234 181.024 34.0234H223.278C224.164 34.0234 224.882 34.7418 224.882 35.628V35.628C224.882 36.5142 224.164 37.2326 223.278 37.2326H181.024C180.138 37.2326 179.419 36.5142 179.419 35.628V35.628Z" fill="#BA342F"/>
<path fill-rule="evenodd" clip-rule="evenodd" d="M171.848 22.2396C170.86 22.2396 170.059 23.0403 170.059 24.0281C170.059 25.0158 170.86 25.8165 171.848 25.8165C172.836 25.8165 173.636 25.0158 173.636 24.0281C173.636 23.0403 172.836 22.2396 171.848 22.2396ZM168.99 24.0281C168.99 22.4496 170.269 21.1699 171.848 21.1699C173.426 21.1699 174.706 22.4496 174.706 24.0281C174.706 25.6066 173.426 26.8862 171.848 26.8862C170.269 26.8862 168.99 25.6066 168.99 24.0281Z" fill="#78A752"/>
<path fill-rule="evenodd" clip-rule="evenodd" d="M173.059 23.4837L171.403 25.1394L170.637 24.3737L171.015 23.9955L171.403 24.383L172.68 23.1055L173.059 23.4837Z" fill="#78A752"/>
<path d="M179.419 24.0279C179.419 23.1417 180.138 22.4233 181.024 22.4233H204.829C205.715 22.4233 206.433 23.1417 206.433 24.0279C206.433 24.9141 205.715 25.6325 204.829 25.6325H181.024C180.138 25.6325 179.419 24.9141 179.419 24.0279Z" fill="#78A752"/>
<path fill-rule="evenodd" clip-rule="evenodd" d="M171.848 45.5555C170.86 45.5555 170.059 46.3562 170.059 47.3439C170.059 48.3316 170.86 49.1323 171.848 49.1323C172.835 49.1323 173.636 48.3316 173.636 47.3439C173.636 46.3562 172.835 45.5555 171.848 45.5555ZM168.99 47.3439C168.99 45.7655 170.269 44.4858 171.848 44.4858C173.426 44.4858 174.706 45.7655 174.706 47.3439C174.706 48.9224 173.426 50.202 171.848 50.202C170.269 50.202 168.99 48.9224 168.99 47.3439Z" fill="#BA342F"/>
<path fill-rule="evenodd" clip-rule="evenodd" d="M172.49 48.3645L170.827 46.7014L171.206 46.3232L172.869 47.9863L172.49 48.3645Z" fill="#BA342F"/>
<path fill-rule="evenodd" clip-rule="evenodd" d="M171.205 48.3645L172.868 46.7014L172.49 46.3232L170.827 47.9863L171.205 48.3645Z" fill="#BA342F"/>
<path d="M179.419 47.3438C179.419 46.4576 180.138 45.7393 181.024 45.7393H208.784C209.67 45.7393 210.388 46.4576 210.388 47.3438C210.388 48.23 209.67 48.9484 208.784 48.9484H181.024C180.138 48.9484 179.419 48.23 179.419 47.3438Z" fill="#BA342F"/>
<path d="M254.312 41.124C254.312 47.4749 249.163 52.624 242.812 52.624C236.461 52.624 231.312 47.4749 231.312 41.124C231.312 34.7732 236.461 29.624 242.812 29.624C249.163 29.624 254.312 34.7732 254.312 41.124Z" fill="#B767F7"/>
<path d="M253.052 41.1238C253.052 46.7755 248.471 51.3638 242.812 51.3638C237.153 51.3638 232.572 46.7828 232.572 41.1238C232.572 35.4649 237.153 30.8838 242.812 30.8838C248.471 30.8838 253.052 35.4649 253.052 41.1238V41.1238Z" fill="#DBACFF"/>
<path d="M233.773 41.1238C233.773 37.0016 235.929 33.4183 239.112 31.5757C235.288 33.0614 232.579 36.7758 232.579 41.1238C232.579 45.4718 235.288 49.1862 239.112 50.6719C235.929 48.8293 233.773 45.246 233.773 41.1238Z" fill="white"/>
<path d="M238.267 45.4066C238.959 44.6783 240.714 44.1685 242.768 44.1685C244.822 44.1685 246.468 44.6564 247.203 45.341" stroke="#954ECD" stroke-width="1.5" stroke-miterlimit="10" stroke-linecap="round"/>
<path d="M247.793 39.3325L245.973 39.4709C245.769 39.704 245.645 40.0098 245.645 40.3376C245.645 41.0586 246.235 41.6485 246.956 41.6485C247.677 41.6485 248.267 41.0586 248.267 40.3376C248.267 39.937 248.085 39.5729 247.801 39.3325H247.793Z" fill="#954ECD"/>
<path d="M237.714 39.3398C237.429 39.5802 237.255 39.9371 237.255 40.3376C237.255 41.0587 237.845 41.6486 238.566 41.6486C239.287 41.6486 239.877 41.0587 239.877 40.3376C239.877 40.0099 239.753 39.704 239.549 39.4782L237.714 39.3398V39.3398Z" fill="#954ECD"/>
<defs>
<filter id="filter0_d_288_2207" x="287.475" y="7.16992" width="42.4327" height="42.4326" filterUnits="userSpaceOnUse" color-interpolation-filters="sRGB">
<feFlood flood-opacity="0" result="BackgroundImageFix"/>
<feColorMatrix in="SourceAlpha" type="matrix" values="0 0 0 0 0 0 0 0 0 0 0 0 0 0 0 0 0 0 127 0" result="hardAlpha"/>
<feOffset dy="2"/>
<feGaussianBlur stdDeviation="2"/>
<feComposite in2="hardAlpha" operator="out"/>
<feColorMatrix type="matrix" values="0 0 0 0 0 0 0 0 0 0 0 0 0 0 0 0 0 0 0.2 0"/>
<feBlend mode="normal" in2="BackgroundImageFix" result="effect1_dropShadow_288_2207"/>
<feBlend mode="normal" in="SourceGraphic" in2="effect1_dropShadow_288_2207" result="shape"/>
</filter>
<filter id="filter1_d_288_2207" x="291.524" y="9.271" width="34.336" height="34.3359" filterUnits="userSpaceOnUse" color-interpolation-filters="sRGB">
<feFlood flood-opacity="0" result="BackgroundImageFix"/>
<feColorMatrix in="SourceAlpha" type="matrix" values="0 0 0 0 0 0 0 0 0 0 0 0 0 0 0 0 0 0 127 0" result="hardAlpha"/>
<feOffset/>
<feGaussianBlur stdDeviation="2"/>
<feComposite in2="hardAlpha" operator="out"/>
<feColorMatrix type="matrix" values="0 0 0 0 0 0 0 0 0 0 0 0 0 0 0 0 0 0 0.1 0"/>
<feBlend mode="normal" in2="BackgroundImageFix" result="effect1_dropShadow_288_2207"/>
<feBlend mode="normal" in="SourceGraphic" in2="effect1_dropShadow_288_2207" result="shape"/>
</filter>
<filter id="filter2_d_288_2207" x="44.5511" y="71.8301" width="138.317" height="89.8965" filterUnits="userSpaceOnUse" color-interpolation-filters="sRGB">
<feFlood flood-opacity="0" result="BackgroundImageFix"/>
<feColorMatrix in="SourceAlpha" type="matrix" values="0 0 0 0 0 0 0 0 0 0 0 0 0 0 0 0 0 0 127 0" result="hardAlpha"/>
<feOffset/>
<feGaussianBlur stdDeviation="5"/>
<feComposite in2="hardAlpha" operator="out"/>
<feColorMatrix type="matrix" values="0 0 0 0 0 0 0 0 0 0 0 0 0 0 0 0 0 0 0.1 0"/>
<feBlend mode="normal" in2="BackgroundImageFix" result="effect1_dropShadow_288_2207"/>
<feBlend mode="normal" in="SourceGraphic" in2="effect1_dropShadow_288_2207" result="shape"/>
</filter>
<linearGradient id="paint0_linear_288_2207" x1="308.692" y1="8.64746" x2="308.692" y2="44.1247" gradientUnits="userSpaceOnUse">
<stop stop-color="#FAE632"/>
<stop offset="1" stop-color="#F5D400"/>
</linearGradient>
<linearGradient id="paint1_linear_288_2207" x1="308.692" y1="13.271" x2="308.692" y2="39.607" gradientUnits="userSpaceOnUse">
<stop stop-color="#E0992D"/>
<stop offset="1" stop-color="#EB7426"/>
</linearGradient>
</defs>
</svg>
